<mxfile host="65bd71144e">
    <diagram id="kxCUlZkBnEht9E5U2b47" name="第 1 页">
        <mxGraphModel dx="861" dy="1940" grid="1" gridSize="10" guides="1" tooltips="1" connect="1" arrows="1" fold="1" page="1" pageScale="1" pageWidth="827" pageHeight="1169" math="0" shadow="0">
            <root>
                <mxCell id="0"/>
                <mxCell id="1" parent="0"/>
                <mxCell id="yljXyeKDuKMBw9XO_9RV-11" style="edgeStyle=orthogonalEdgeStyle;rounded=0;orthogonalLoop=1;jettySize=auto;html=1;entryX=0;entryY=0.5;entryDx=0;entryDy=0;" parent="1" source="yljXyeKDuKMBw9XO_9RV-1" target="yljXyeKDuKMBw9XO_9RV-4" edge="1">
                    <mxGeometry relative="1" as="geometry"/>
                </mxCell>
                <mxCell id="yljXyeKDuKMBw9XO_9RV-1" value="'+'" style="ellipse;whiteSpace=wrap;html=1;aspect=fixed;" parent="1" vertex="1">
                    <mxGeometry x="320" y="680" width="40" height="40" as="geometry"/>
                </mxCell>
                <mxCell id="yljXyeKDuKMBw9XO_9RV-7" style="edgeStyle=orthogonalEdgeStyle;rounded=0;orthogonalLoop=1;jettySize=auto;html=1;exitX=0.5;exitY=0;exitDx=0;exitDy=0;" parent="1" source="yljXyeKDuKMBw9XO_9RV-2" edge="1">
                    <mxGeometry relative="1" as="geometry">
                        <mxPoint x="560" y="740" as="targetPoint"/>
                        <Array as="points">
                            <mxPoint x="200" y="660"/>
                            <mxPoint x="560" y="660"/>
                        </Array>
                    </mxGeometry>
                </mxCell>
                <mxCell id="yljXyeKDuKMBw9XO_9RV-9" style="edgeStyle=orthogonalEdgeStyle;rounded=0;orthogonalLoop=1;jettySize=auto;html=1;entryX=0;entryY=0.5;entryDx=0;entryDy=0;" parent="1" source="yljXyeKDuKMBw9XO_9RV-2" target="yljXyeKDuKMBw9XO_9RV-1" edge="1">
                    <mxGeometry relative="1" as="geometry"/>
                </mxCell>
                <mxCell id="yljXyeKDuKMBw9XO_9RV-10" style="edgeStyle=orthogonalEdgeStyle;rounded=0;orthogonalLoop=1;jettySize=auto;html=1;entryX=0;entryY=0.5;entryDx=0;entryDy=0;" parent="1" source="yljXyeKDuKMBw9XO_9RV-2" target="yljXyeKDuKMBw9XO_9RV-5" edge="1">
                    <mxGeometry relative="1" as="geometry"/>
                </mxCell>
                <mxCell id="yljXyeKDuKMBw9XO_9RV-2" value="T1" style="rounded=0;whiteSpace=wrap;html=1;" parent="1" vertex="1">
                    <mxGeometry x="160" y="720" width="80" height="40" as="geometry"/>
                </mxCell>
                <mxCell id="yljXyeKDuKMBw9XO_9RV-3" value="E" style="endArrow=classic;html=1;rounded=0;" parent="1" edge="1">
                    <mxGeometry width="50" height="50" relative="1" as="geometry">
                        <mxPoint x="80" y="740" as="sourcePoint"/>
                        <mxPoint x="160" y="739.5" as="targetPoint"/>
                    </mxGeometry>
                </mxCell>
                <mxCell id="yljXyeKDuKMBw9XO_9RV-14" style="edgeStyle=orthogonalEdgeStyle;rounded=0;orthogonalLoop=1;jettySize=auto;html=1;" parent="1" source="yljXyeKDuKMBw9XO_9RV-4" edge="1">
                    <mxGeometry relative="1" as="geometry">
                        <mxPoint x="260" y="740" as="targetPoint"/>
                        <Array as="points">
                            <mxPoint x="480" y="820"/>
                            <mxPoint x="260" y="820"/>
                        </Array>
                    </mxGeometry>
                </mxCell>
                <mxCell id="yljXyeKDuKMBw9XO_9RV-4" value="T2" style="rounded=0;whiteSpace=wrap;html=1;" parent="1" vertex="1">
                    <mxGeometry x="440" y="720" width="80" height="40" as="geometry"/>
                </mxCell>
                <mxCell id="yljXyeKDuKMBw9XO_9RV-12" style="edgeStyle=orthogonalEdgeStyle;rounded=0;orthogonalLoop=1;jettySize=auto;html=1;" parent="1" source="yljXyeKDuKMBw9XO_9RV-5" edge="1">
                    <mxGeometry relative="1" as="geometry">
                        <mxPoint x="440" y="740" as="targetPoint"/>
                        <Array as="points">
                            <mxPoint x="400" y="780"/>
                            <mxPoint x="400" y="740"/>
                        </Array>
                    </mxGeometry>
                </mxCell>
                <mxCell id="yljXyeKDuKMBw9XO_9RV-5" value="'-'" style="ellipse;whiteSpace=wrap;html=1;aspect=fixed;" parent="1" vertex="1">
                    <mxGeometry x="320" y="760" width="40" height="40" as="geometry"/>
                </mxCell>
                <mxCell id="yljXyeKDuKMBw9XO_9RV-6" value="" style="endArrow=classic;html=1;rounded=0;" parent="1" edge="1">
                    <mxGeometry width="50" height="50" relative="1" as="geometry">
                        <mxPoint x="520" y="740" as="sourcePoint"/>
                        <mxPoint x="600" y="740" as="targetPoint"/>
                    </mxGeometry>
                </mxCell>
                <mxCell id="yljXyeKDuKMBw9XO_9RV-15" style="edgeStyle=orthogonalEdgeStyle;rounded=0;orthogonalLoop=1;jettySize=auto;html=1;entryX=0;entryY=0.5;entryDx=0;entryDy=0;" parent="1" source="yljXyeKDuKMBw9XO_9RV-16" target="yljXyeKDuKMBw9XO_9RV-23" edge="1">
                    <mxGeometry relative="1" as="geometry"/>
                </mxCell>
                <mxCell id="yljXyeKDuKMBw9XO_9RV-16" value="'*'" style="ellipse;whiteSpace=wrap;html=1;aspect=fixed;" parent="1" vertex="1">
                    <mxGeometry x="320" y="880" width="40" height="40" as="geometry"/>
                </mxCell>
                <mxCell id="yljXyeKDuKMBw9XO_9RV-17" style="edgeStyle=orthogonalEdgeStyle;rounded=0;orthogonalLoop=1;jettySize=auto;html=1;exitX=0.5;exitY=0;exitDx=0;exitDy=0;" parent="1" source="yljXyeKDuKMBw9XO_9RV-20" edge="1">
                    <mxGeometry relative="1" as="geometry">
                        <mxPoint x="560" y="940" as="targetPoint"/>
                        <Array as="points">
                            <mxPoint x="200" y="860"/>
                            <mxPoint x="560" y="860"/>
                        </Array>
                    </mxGeometry>
                </mxCell>
                <mxCell id="yljXyeKDuKMBw9XO_9RV-18" style="edgeStyle=orthogonalEdgeStyle;rounded=0;orthogonalLoop=1;jettySize=auto;html=1;entryX=0;entryY=0.5;entryDx=0;entryDy=0;" parent="1" source="yljXyeKDuKMBw9XO_9RV-20" target="yljXyeKDuKMBw9XO_9RV-16" edge="1">
                    <mxGeometry relative="1" as="geometry"/>
                </mxCell>
                <mxCell id="yljXyeKDuKMBw9XO_9RV-19" style="edgeStyle=orthogonalEdgeStyle;rounded=0;orthogonalLoop=1;jettySize=auto;html=1;entryX=0;entryY=0.5;entryDx=0;entryDy=0;" parent="1" source="yljXyeKDuKMBw9XO_9RV-20" target="yljXyeKDuKMBw9XO_9RV-25" edge="1">
                    <mxGeometry relative="1" as="geometry"/>
                </mxCell>
                <mxCell id="yljXyeKDuKMBw9XO_9RV-20" value="F1" style="rounded=0;whiteSpace=wrap;html=1;" parent="1" vertex="1">
                    <mxGeometry x="160" y="920" width="80" height="40" as="geometry"/>
                </mxCell>
                <mxCell id="yljXyeKDuKMBw9XO_9RV-21" value="T" style="endArrow=classic;html=1;rounded=0;" parent="1" edge="1">
                    <mxGeometry width="50" height="50" relative="1" as="geometry">
                        <mxPoint x="80" y="940" as="sourcePoint"/>
                        <mxPoint x="160" y="939.5" as="targetPoint"/>
                    </mxGeometry>
                </mxCell>
                <mxCell id="yljXyeKDuKMBw9XO_9RV-22" style="edgeStyle=orthogonalEdgeStyle;rounded=0;orthogonalLoop=1;jettySize=auto;html=1;" parent="1" source="yljXyeKDuKMBw9XO_9RV-23" edge="1">
                    <mxGeometry relative="1" as="geometry">
                        <mxPoint x="260" y="940" as="targetPoint"/>
                        <Array as="points">
                            <mxPoint x="480" y="1020"/>
                            <mxPoint x="260" y="1020"/>
                        </Array>
                    </mxGeometry>
                </mxCell>
                <mxCell id="yljXyeKDuKMBw9XO_9RV-23" value="F2" style="rounded=0;whiteSpace=wrap;html=1;" parent="1" vertex="1">
                    <mxGeometry x="440" y="920" width="80" height="40" as="geometry"/>
                </mxCell>
                <mxCell id="yljXyeKDuKMBw9XO_9RV-24" style="edgeStyle=orthogonalEdgeStyle;rounded=0;orthogonalLoop=1;jettySize=auto;html=1;" parent="1" source="yljXyeKDuKMBw9XO_9RV-25" edge="1">
                    <mxGeometry relative="1" as="geometry">
                        <mxPoint x="440" y="940" as="targetPoint"/>
                        <Array as="points">
                            <mxPoint x="400" y="980"/>
                            <mxPoint x="400" y="940"/>
                        </Array>
                    </mxGeometry>
                </mxCell>
                <mxCell id="yljXyeKDuKMBw9XO_9RV-25" value="'/'" style="ellipse;whiteSpace=wrap;html=1;aspect=fixed;" parent="1" vertex="1">
                    <mxGeometry x="320" y="960" width="40" height="40" as="geometry"/>
                </mxCell>
                <mxCell id="yljXyeKDuKMBw9XO_9RV-26" value="" style="endArrow=classic;html=1;rounded=0;" parent="1" edge="1">
                    <mxGeometry width="50" height="50" relative="1" as="geometry">
                        <mxPoint x="520" y="940" as="sourcePoint"/>
                        <mxPoint x="600" y="940" as="targetPoint"/>
                    </mxGeometry>
                </mxCell>
                <mxCell id="yljXyeKDuKMBw9XO_9RV-41" value="S" style="endArrow=classic;html=1;rounded=0;entryX=0;entryY=0.5;entryDx=0;entryDy=0;" parent="1" target="yljXyeKDuKMBw9XO_9RV-42" edge="1">
                    <mxGeometry x="-0.5714" width="50" height="50" relative="1" as="geometry">
                        <mxPoint x="80" y="460" as="sourcePoint"/>
                        <mxPoint x="160" y="459.5" as="targetPoint"/>
                        <mxPoint as="offset"/>
                    </mxGeometry>
                </mxCell>
                <mxCell id="yljXyeKDuKMBw9XO_9RV-45" style="edgeStyle=orthogonalEdgeStyle;rounded=0;orthogonalLoop=1;jettySize=auto;html=1;entryX=0;entryY=0.5;entryDx=0;entryDy=0;" parent="1" source="yljXyeKDuKMBw9XO_9RV-42" target="yljXyeKDuKMBw9XO_9RV-44" edge="1">
                    <mxGeometry relative="1" as="geometry"/>
                </mxCell>
                <mxCell id="yljXyeKDuKMBw9XO_9RV-42" value="if" style="ellipse;whiteSpace=wrap;html=1;aspect=fixed;" parent="1" vertex="1">
                    <mxGeometry x="220" y="440" width="40" height="40" as="geometry"/>
                </mxCell>
                <mxCell id="yljXyeKDuKMBw9XO_9RV-47" style="edgeStyle=orthogonalEdgeStyle;rounded=0;orthogonalLoop=1;jettySize=auto;html=1;entryX=0;entryY=0.5;entryDx=0;entryDy=0;" parent="1" source="yljXyeKDuKMBw9XO_9RV-44" target="yljXyeKDuKMBw9XO_9RV-46" edge="1">
                    <mxGeometry relative="1" as="geometry"/>
                </mxCell>
                <mxCell id="yljXyeKDuKMBw9XO_9RV-44" value="C" style="rounded=0;whiteSpace=wrap;html=1;" parent="1" vertex="1">
                    <mxGeometry x="300" y="440" width="80" height="40" as="geometry"/>
                </mxCell>
                <mxCell id="yljXyeKDuKMBw9XO_9RV-72" style="edgeStyle=orthogonalEdgeStyle;rounded=0;orthogonalLoop=1;jettySize=auto;html=1;exitX=1;exitY=0.5;exitDx=0;exitDy=0;" parent="1" source="yljXyeKDuKMBw9XO_9RV-46" edge="1">
                    <mxGeometry relative="1" as="geometry">
                        <mxPoint x="600" y="540" as="targetPoint"/>
                        <Array as="points">
                            <mxPoint x="520" y="460"/>
                            <mxPoint x="520" y="500"/>
                            <mxPoint x="160" y="500"/>
                            <mxPoint x="160" y="540"/>
                        </Array>
                    </mxGeometry>
                </mxCell>
                <mxCell id="yljXyeKDuKMBw9XO_9RV-46" value="S2" style="rounded=0;whiteSpace=wrap;html=1;" parent="1" vertex="1">
                    <mxGeometry x="420" y="440" width="80" height="40" as="geometry"/>
                </mxCell>
                <mxCell id="yljXyeKDuKMBw9XO_9RV-54" style="edgeStyle=orthogonalEdgeStyle;rounded=0;orthogonalLoop=1;jettySize=auto;html=1;entryX=0;entryY=0.5;entryDx=0;entryDy=0;" parent="1" source="yljXyeKDuKMBw9XO_9RV-49" target="yljXyeKDuKMBw9XO_9RV-53" edge="1">
                    <mxGeometry relative="1" as="geometry"/>
                </mxCell>
                <mxCell id="yljXyeKDuKMBw9XO_9RV-49" value="else" style="ellipse;whiteSpace=wrap;html=1;aspect=fixed;" parent="1" vertex="1">
                    <mxGeometry x="260" y="560" width="40" height="40" as="geometry"/>
                </mxCell>
                <mxCell id="yljXyeKDuKMBw9XO_9RV-52" value="" style="endArrow=classic;html=1;rounded=0;entryX=0;entryY=0.5;entryDx=0;entryDy=0;" parent="1" target="yljXyeKDuKMBw9XO_9RV-49" edge="1">
                    <mxGeometry width="50" height="50" relative="1" as="geometry">
                        <mxPoint x="220" y="540" as="sourcePoint"/>
                        <mxPoint x="410" y="460" as="targetPoint"/>
                        <Array as="points">
                            <mxPoint x="220" y="580"/>
                        </Array>
                    </mxGeometry>
                </mxCell>
                <mxCell id="yljXyeKDuKMBw9XO_9RV-55" style="edgeStyle=orthogonalEdgeStyle;rounded=0;orthogonalLoop=1;jettySize=auto;html=1;" parent="1" source="yljXyeKDuKMBw9XO_9RV-53" edge="1">
                    <mxGeometry relative="1" as="geometry">
                        <mxPoint x="460" y="540" as="targetPoint"/>
                    </mxGeometry>
                </mxCell>
                <mxCell id="yljXyeKDuKMBw9XO_9RV-53" value="S3" style="rounded=0;whiteSpace=wrap;html=1;" parent="1" vertex="1">
                    <mxGeometry x="340" y="560" width="80" height="40" as="geometry"/>
                </mxCell>
                <mxCell id="yljXyeKDuKMBw9XO_9RV-69" style="edgeStyle=orthogonalEdgeStyle;rounded=0;orthogonalLoop=1;jettySize=auto;html=1;exitX=0;exitY=0.5;exitDx=0;exitDy=0;entryX=1;entryY=0.5;entryDx=0;entryDy=0;" parent="1" source="yljXyeKDuKMBw9XO_9RV-57" target="yljXyeKDuKMBw9XO_9RV-59" edge="1">
                    <mxGeometry relative="1" as="geometry"/>
                </mxCell>
                <mxCell id="yljXyeKDuKMBw9XO_9RV-57" value="while" style="ellipse;whiteSpace=wrap;html=1;aspect=fixed;" parent="1" vertex="1">
                    <mxGeometry x="440" y="360" width="40" height="40" as="geometry"/>
                </mxCell>
                <mxCell id="yljXyeKDuKMBw9XO_9RV-70" style="edgeStyle=orthogonalEdgeStyle;rounded=0;orthogonalLoop=1;jettySize=auto;html=1;" parent="1" source="yljXyeKDuKMBw9XO_9RV-59" target="yljXyeKDuKMBw9XO_9RV-61" edge="1">
                    <mxGeometry relative="1" as="geometry"/>
                </mxCell>
                <mxCell id="yljXyeKDuKMBw9XO_9RV-59" value="C" style="rounded=0;whiteSpace=wrap;html=1;" parent="1" vertex="1">
                    <mxGeometry x="320" y="360" width="80" height="40" as="geometry"/>
                </mxCell>
                <mxCell id="yljXyeKDuKMBw9XO_9RV-71" style="edgeStyle=orthogonalEdgeStyle;rounded=0;orthogonalLoop=1;jettySize=auto;html=1;" parent="1" source="yljXyeKDuKMBw9XO_9RV-61" edge="1">
                    <mxGeometry relative="1" as="geometry">
                        <mxPoint x="180" y="420" as="targetPoint"/>
                        <Array as="points">
                            <mxPoint x="180" y="380"/>
                        </Array>
                    </mxGeometry>
                </mxCell>
                <mxCell id="yljXyeKDuKMBw9XO_9RV-61" value="S1" style="rounded=0;whiteSpace=wrap;html=1;" parent="1" vertex="1">
                    <mxGeometry x="200" y="360" width="80" height="40" as="geometry"/>
                </mxCell>
                <mxCell id="yljXyeKDuKMBw9XO_9RV-65" value="" style="endArrow=classic;html=1;rounded=0;" parent="1" edge="1">
                    <mxGeometry width="50" height="50" relative="1" as="geometry">
                        <mxPoint x="160" y="420" as="sourcePoint"/>
                        <mxPoint x="600" y="420" as="targetPoint"/>
                    </mxGeometry>
                </mxCell>
                <mxCell id="yljXyeKDuKMBw9XO_9RV-67" value="" style="endArrow=none;html=1;rounded=0;" parent="1" edge="1">
                    <mxGeometry width="50" height="50" relative="1" as="geometry">
                        <mxPoint x="160" y="460" as="sourcePoint"/>
                        <mxPoint x="160" y="420" as="targetPoint"/>
                    </mxGeometry>
                </mxCell>
                <mxCell id="yljXyeKDuKMBw9XO_9RV-68" value="" style="endArrow=classic;html=1;rounded=0;entryX=1;entryY=0.5;entryDx=0;entryDy=0;" parent="1" target="yljXyeKDuKMBw9XO_9RV-57" edge="1">
                    <mxGeometry width="50" height="50" relative="1" as="geometry">
                        <mxPoint x="510" y="420" as="sourcePoint"/>
                        <mxPoint x="350" y="460" as="targetPoint"/>
                        <Array as="points">
                            <mxPoint x="510" y="380"/>
                        </Array>
                    </mxGeometry>
                </mxCell>
                <mxCell id="yljXyeKDuKMBw9XO_9RV-73" value="C" style="endArrow=classic;html=1;rounded=0;" parent="1" edge="1">
                    <mxGeometry width="50" height="50" relative="1" as="geometry">
                        <mxPoint x="80" y="150.5" as="sourcePoint"/>
                        <mxPoint x="160" y="150" as="targetPoint"/>
                    </mxGeometry>
                </mxCell>
                <mxCell id="yljXyeKDuKMBw9XO_9RV-79" style="edgeStyle=orthogonalEdgeStyle;rounded=0;orthogonalLoop=1;jettySize=auto;html=1;entryX=0;entryY=0.5;entryDx=0;entryDy=0;" parent="1" source="yljXyeKDuKMBw9XO_9RV-75" target="yljXyeKDuKMBw9XO_9RV-76" edge="1">
                    <mxGeometry relative="1" as="geometry">
                        <mxPoint x="300" y="100" as="targetPoint"/>
                    </mxGeometry>
                </mxCell>
                <mxCell id="yljXyeKDuKMBw9XO_9RV-80" style="edgeStyle=orthogonalEdgeStyle;rounded=0;orthogonalLoop=1;jettySize=auto;html=1;entryX=0;entryY=0.5;entryDx=0;entryDy=0;" parent="1" source="yljXyeKDuKMBw9XO_9RV-75" target="yljXyeKDuKMBw9XO_9RV-78" edge="1">
                    <mxGeometry relative="1" as="geometry"/>
                </mxCell>
                <mxCell id="yljXyeKDuKMBw9XO_9RV-81" style="edgeStyle=orthogonalEdgeStyle;rounded=0;orthogonalLoop=1;jettySize=auto;html=1;" parent="1" source="yljXyeKDuKMBw9XO_9RV-75" target="yljXyeKDuKMBw9XO_9RV-77" edge="1">
                    <mxGeometry relative="1" as="geometry"/>
                </mxCell>
                <mxCell id="yljXyeKDuKMBw9XO_9RV-75" value="E1" style="rounded=0;whiteSpace=wrap;html=1;" parent="1" vertex="1">
                    <mxGeometry x="160" y="130" width="80" height="40" as="geometry"/>
                </mxCell>
                <mxCell id="yljXyeKDuKMBw9XO_9RV-83" style="edgeStyle=orthogonalEdgeStyle;rounded=0;orthogonalLoop=1;jettySize=auto;html=1;entryX=0;entryY=0.5;entryDx=0;entryDy=0;" parent="1" source="yljXyeKDuKMBw9XO_9RV-76" target="yljXyeKDuKMBw9XO_9RV-82" edge="1">
                    <mxGeometry relative="1" as="geometry"/>
                </mxCell>
                <mxCell id="yljXyeKDuKMBw9XO_9RV-76" value="&amp;gt;" style="ellipse;whiteSpace=wrap;html=1;aspect=fixed;" parent="1" vertex="1">
                    <mxGeometry x="320" y="70" width="40" height="40" as="geometry"/>
                </mxCell>
                <mxCell id="yljXyeKDuKMBw9XO_9RV-84" style="edgeStyle=orthogonalEdgeStyle;rounded=0;orthogonalLoop=1;jettySize=auto;html=1;" parent="1" source="yljXyeKDuKMBw9XO_9RV-77" edge="1">
                    <mxGeometry relative="1" as="geometry">
                        <mxPoint x="440" y="150" as="targetPoint"/>
                    </mxGeometry>
                </mxCell>
                <mxCell id="yljXyeKDuKMBw9XO_9RV-77" value="&amp;lt;" style="ellipse;whiteSpace=wrap;html=1;aspect=fixed;" parent="1" vertex="1">
                    <mxGeometry x="320" y="130" width="40" height="40" as="geometry"/>
                </mxCell>
                <mxCell id="yljXyeKDuKMBw9XO_9RV-85" style="edgeStyle=orthogonalEdgeStyle;rounded=0;orthogonalLoop=1;jettySize=auto;html=1;" parent="1" source="yljXyeKDuKMBw9XO_9RV-78" edge="1">
                    <mxGeometry relative="1" as="geometry">
                        <mxPoint x="440" y="150" as="targetPoint"/>
                        <Array as="points">
                            <mxPoint x="400" y="210"/>
                            <mxPoint x="400" y="150"/>
                        </Array>
                    </mxGeometry>
                </mxCell>
                <mxCell id="yljXyeKDuKMBw9XO_9RV-78" value="=" style="ellipse;whiteSpace=wrap;html=1;aspect=fixed;" parent="1" vertex="1">
                    <mxGeometry x="320" y="190" width="40" height="40" as="geometry"/>
                </mxCell>
                <mxCell id="yljXyeKDuKMBw9XO_9RV-86" style="edgeStyle=orthogonalEdgeStyle;rounded=0;orthogonalLoop=1;jettySize=auto;html=1;exitX=1;exitY=0.5;exitDx=0;exitDy=0;" parent="1" source="yljXyeKDuKMBw9XO_9RV-82" edge="1">
                    <mxGeometry relative="1" as="geometry">
                        <mxPoint x="600" y="240" as="targetPoint"/>
                    </mxGeometry>
                </mxCell>
                <mxCell id="yljXyeKDuKMBw9XO_9RV-82" value="E2" style="rounded=0;whiteSpace=wrap;html=1;" parent="1" vertex="1">
                    <mxGeometry x="440" y="130" width="80" height="40" as="geometry"/>
                </mxCell>
                <mxCell id="yljXyeKDuKMBw9XO_9RV-87" value="F" style="endArrow=classic;html=1;rounded=0;" parent="1" edge="1">
                    <mxGeometry width="50" height="50" relative="1" as="geometry">
                        <mxPoint x="140" y="1110" as="sourcePoint"/>
                        <mxPoint x="220" y="1109.5" as="targetPoint"/>
                    </mxGeometry>
                </mxCell>
                <mxCell id="yljXyeKDuKMBw9XO_9RV-90" style="edgeStyle=orthogonalEdgeStyle;rounded=0;orthogonalLoop=1;jettySize=auto;html=1;entryX=0;entryY=0.5;entryDx=0;entryDy=0;" parent="1" source="yljXyeKDuKMBw9XO_9RV-88" target="yljXyeKDuKMBw9XO_9RV-89" edge="1">
                    <mxGeometry relative="1" as="geometry"/>
                </mxCell>
                <mxCell id="yljXyeKDuKMBw9XO_9RV-88" value="(" style="ellipse;whiteSpace=wrap;html=1;aspect=fixed;" parent="1" vertex="1">
                    <mxGeometry x="220" y="1090" width="40" height="40" as="geometry"/>
                </mxCell>
                <mxCell id="yljXyeKDuKMBw9XO_9RV-92" style="edgeStyle=orthogonalEdgeStyle;rounded=0;orthogonalLoop=1;jettySize=auto;html=1;entryX=0;entryY=0.5;entryDx=0;entryDy=0;" parent="1" source="yljXyeKDuKMBw9XO_9RV-89" target="yljXyeKDuKMBw9XO_9RV-91" edge="1">
                    <mxGeometry relative="1" as="geometry"/>
                </mxCell>
                <mxCell id="yljXyeKDuKMBw9XO_9RV-89" value="E" style="rounded=0;whiteSpace=wrap;html=1;" parent="1" vertex="1">
                    <mxGeometry x="300" y="1090" width="80" height="40" as="geometry"/>
                </mxCell>
                <mxCell id="yljXyeKDuKMBw9XO_9RV-102" style="edgeStyle=orthogonalEdgeStyle;rounded=0;orthogonalLoop=1;jettySize=auto;html=1;exitX=1;exitY=0.5;exitDx=0;exitDy=0;" parent="1" source="yljXyeKDuKMBw9XO_9RV-91" edge="1">
                    <mxGeometry relative="1" as="geometry">
                        <mxPoint x="540" y="1110" as="targetPoint"/>
                    </mxGeometry>
                </mxCell>
                <mxCell id="yljXyeKDuKMBw9XO_9RV-91" value=")" style="ellipse;whiteSpace=wrap;html=1;aspect=fixed;" parent="1" vertex="1">
                    <mxGeometry x="420" y="1090" width="40" height="40" as="geometry"/>
                </mxCell>
                <mxCell id="yljXyeKDuKMBw9XO_9RV-103" style="edgeStyle=orthogonalEdgeStyle;rounded=0;orthogonalLoop=1;jettySize=auto;html=1;" parent="1" source="yljXyeKDuKMBw9XO_9RV-93" edge="1">
                    <mxGeometry relative="1" as="geometry">
                        <mxPoint x="500" y="1110" as="targetPoint"/>
                    </mxGeometry>
                </mxCell>
                <mxCell id="yljXyeKDuKMBw9XO_9RV-93" value="idn" style="rounded=0;whiteSpace=wrap;html=1;" parent="1" vertex="1">
                    <mxGeometry x="300" y="1140" width="80" height="40" as="geometry"/>
                </mxCell>
                <mxCell id="yljXyeKDuKMBw9XO_9RV-104" style="edgeStyle=orthogonalEdgeStyle;rounded=0;orthogonalLoop=1;jettySize=auto;html=1;exitX=1;exitY=0.5;exitDx=0;exitDy=0;" parent="1" source="yljXyeKDuKMBw9XO_9RV-94" edge="1">
                    <mxGeometry relative="1" as="geometry">
                        <mxPoint x="500" y="1110" as="targetPoint"/>
                    </mxGeometry>
                </mxCell>
                <mxCell id="yljXyeKDuKMBw9XO_9RV-94" value="int8/real8" style="rounded=0;whiteSpace=wrap;html=1;" parent="1" vertex="1">
                    <mxGeometry x="300" y="1190" width="80" height="40" as="geometry"/>
                </mxCell>
                <mxCell id="yljXyeKDuKMBw9XO_9RV-105" style="edgeStyle=orthogonalEdgeStyle;rounded=0;orthogonalLoop=1;jettySize=auto;html=1;" parent="1" source="yljXyeKDuKMBw9XO_9RV-95" edge="1">
                    <mxGeometry relative="1" as="geometry">
                        <mxPoint x="500" y="1110" as="targetPoint"/>
                    </mxGeometry>
                </mxCell>
                <mxCell id="yljXyeKDuKMBw9XO_9RV-95" value="int10/real10" style="rounded=0;whiteSpace=wrap;html=1;" parent="1" vertex="1">
                    <mxGeometry x="300" y="1240" width="80" height="40" as="geometry"/>
                </mxCell>
                <mxCell id="yljXyeKDuKMBw9XO_9RV-97" value="" style="endArrow=classic;html=1;rounded=0;entryX=0;entryY=0.5;entryDx=0;entryDy=0;" parent="1" target="yljXyeKDuKMBw9XO_9RV-93" edge="1">
                    <mxGeometry width="50" height="50" relative="1" as="geometry">
                        <mxPoint x="200" y="1110" as="sourcePoint"/>
                        <mxPoint x="260" y="1170" as="targetPoint"/>
                        <Array as="points">
                            <mxPoint x="200" y="1160"/>
                        </Array>
                    </mxGeometry>
                </mxCell>
                <mxCell id="yljXyeKDuKMBw9XO_9RV-98" value="" style="endArrow=classic;html=1;rounded=0;entryX=0;entryY=0.5;entryDx=0;entryDy=0;" parent="1" target="yljXyeKDuKMBw9XO_9RV-94" edge="1">
                    <mxGeometry width="50" height="50" relative="1" as="geometry">
                        <mxPoint x="200" y="1110" as="sourcePoint"/>
                        <mxPoint x="260" y="1170" as="targetPoint"/>
                        <Array as="points">
                            <mxPoint x="200" y="1210"/>
                        </Array>
                    </mxGeometry>
                </mxCell>
                <mxCell id="yljXyeKDuKMBw9XO_9RV-106" style="edgeStyle=orthogonalEdgeStyle;rounded=0;orthogonalLoop=1;jettySize=auto;html=1;" parent="1" source="yljXyeKDuKMBw9XO_9RV-99" edge="1">
                    <mxGeometry relative="1" as="geometry">
                        <mxPoint x="500" y="1110" as="targetPoint"/>
                    </mxGeometry>
                </mxCell>
                <mxCell id="yljXyeKDuKMBw9XO_9RV-99" value="int16" style="rounded=0;whiteSpace=wrap;html=1;" parent="1" vertex="1">
                    <mxGeometry x="300" y="1290" width="80" height="40" as="geometry"/>
                </mxCell>
                <mxCell id="yljXyeKDuKMBw9XO_9RV-100" value="" style="endArrow=classic;html=1;rounded=0;entryX=0;entryY=0.5;entryDx=0;entryDy=0;" parent="1" edge="1">
                    <mxGeometry width="50" height="50" relative="1" as="geometry">
                        <mxPoint x="200" y="1160" as="sourcePoint"/>
                        <mxPoint x="300" y="1260" as="targetPoint"/>
                        <Array as="points">
                            <mxPoint x="200" y="1260"/>
                        </Array>
                    </mxGeometry>
                </mxCell>
                <mxCell id="yljXyeKDuKMBw9XO_9RV-101" value="" style="endArrow=classic;html=1;rounded=0;entryX=0;entryY=0.5;entryDx=0;entryDy=0;" parent="1" edge="1">
                    <mxGeometry width="50" height="50" relative="1" as="geometry">
                        <mxPoint x="200" y="1210" as="sourcePoint"/>
                        <mxPoint x="300" y="1310" as="targetPoint"/>
                        <Array as="points">
                            <mxPoint x="200" y="1310"/>
                        </Array>
                    </mxGeometry>
                </mxCell>
                <mxCell id="yljXyeKDuKMBw9XO_9RV-108" value="P" style="endArrow=classic;html=1;rounded=0;entryX=0;entryY=0.5;entryDx=0;entryDy=0;" parent="1" target="yljXyeKDuKMBw9XO_9RV-109" edge="1">
                    <mxGeometry width="50" height="50" relative="1" as="geometry">
                        <mxPoint x="140" y="-39.5" as="sourcePoint"/>
                        <mxPoint x="220" y="-40" as="targetPoint"/>
                    </mxGeometry>
                </mxCell>
                <mxCell id="yljXyeKDuKMBw9XO_9RV-112" style="edgeStyle=orthogonalEdgeStyle;rounded=0;orthogonalLoop=1;jettySize=auto;html=1;" parent="1" source="yljXyeKDuKMBw9XO_9RV-109" edge="1">
                    <mxGeometry relative="1" as="geometry">
                        <mxPoint x="540" y="-40" as="targetPoint"/>
                    </mxGeometry>
                </mxCell>
                <mxCell id="yljXyeKDuKMBw9XO_9RV-109" value="L" style="rounded=0;whiteSpace=wrap;html=1;" parent="1" vertex="1">
                    <mxGeometry x="300" y="-60" width="80" height="40" as="geometry"/>
                </mxCell>
                <mxCell id="yljXyeKDuKMBw9XO_9RV-114" style="edgeStyle=orthogonalEdgeStyle;rounded=0;orthogonalLoop=1;jettySize=auto;html=1;" parent="1" source="yljXyeKDuKMBw9XO_9RV-110" edge="1">
                    <mxGeometry relative="1" as="geometry">
                        <mxPoint x="260" y="-40" as="targetPoint"/>
                        <Array as="points">
                            <mxPoint x="260" y="40"/>
                            <mxPoint x="260" y="-40"/>
                        </Array>
                    </mxGeometry>
                </mxCell>
                <mxCell id="yljXyeKDuKMBw9XO_9RV-110" value="P" style="rounded=0;whiteSpace=wrap;html=1;" parent="1" vertex="1">
                    <mxGeometry x="300" y="20" width="80" height="40" as="geometry"/>
                </mxCell>
                <mxCell id="yljXyeKDuKMBw9XO_9RV-113" value="" style="endArrow=classic;html=1;rounded=0;entryX=1;entryY=0.5;entryDx=0;entryDy=0;" parent="1" target="yljXyeKDuKMBw9XO_9RV-110" edge="1">
                    <mxGeometry width="50" height="50" relative="1" as="geometry">
                        <mxPoint x="420" y="-40" as="sourcePoint"/>
                        <mxPoint x="320" y="-80" as="targetPoint"/>
                        <Array as="points">
                            <mxPoint x="420" y="40"/>
                        </Array>
                    </mxGeometry>
                </mxCell>
                <mxCell id="6IYVuv3BcA2IkdbU4PLg-1" value="L" style="endArrow=classic;html=1;rounded=0;entryX=0;entryY=0.5;entryDx=0;entryDy=0;" parent="1" target="6IYVuv3BcA2IkdbU4PLg-3" edge="1">
                    <mxGeometry width="50" height="50" relative="1" as="geometry">
                        <mxPoint x="140" y="1380.5" as="sourcePoint"/>
                        <mxPoint x="220" y="1380" as="targetPoint"/>
                    </mxGeometry>
                </mxCell>
                <mxCell id="6IYVuv3BcA2IkdbU4PLg-2" style="edgeStyle=orthogonalEdgeStyle;rounded=0;orthogonalLoop=1;jettySize=auto;html=1;" parent="1" source="6IYVuv3BcA2IkdbU4PLg-3" edge="1">
                    <mxGeometry relative="1" as="geometry">
                        <mxPoint x="540" y="1380" as="targetPoint"/>
                    </mxGeometry>
                </mxCell>
                <mxCell id="6IYVuv3BcA2IkdbU4PLg-3" value="S" style="rounded=0;whiteSpace=wrap;html=1;" parent="1" vertex="1">
                    <mxGeometry x="300" y="1360" width="80" height="40" as="geometry"/>
                </mxCell>
                <mxCell id="6IYVuv3BcA2IkdbU4PLg-7" value="" style="endArrow=classic;html=1;rounded=0;" parent="1" edge="1">
                    <mxGeometry width="50" height="50" relative="1" as="geometry">
                        <mxPoint x="130" y="460" as="sourcePoint"/>
                        <mxPoint x="220" y="320" as="targetPoint"/>
                        <Array as="points">
                            <mxPoint x="130" y="320"/>
                        </Array>
                    </mxGeometry>
                </mxCell>
                <mxCell id="6IYVuv3BcA2IkdbU4PLg-11" style="edgeStyle=orthogonalEdgeStyle;rounded=0;orthogonalLoop=1;jettySize=auto;html=1;" parent="1" source="6IYVuv3BcA2IkdbU4PLg-8" target="6IYVuv3BcA2IkdbU4PLg-10" edge="1">
                    <mxGeometry relative="1" as="geometry"/>
                </mxCell>
                <mxCell id="6IYVuv3BcA2IkdbU4PLg-8" value="IDN" style="ellipse;whiteSpace=wrap;html=1;aspect=fixed;" parent="1" vertex="1">
                    <mxGeometry x="220" y="300" width="40" height="40" as="geometry"/>
                </mxCell>
                <mxCell id="6IYVuv3BcA2IkdbU4PLg-12" style="edgeStyle=orthogonalEdgeStyle;rounded=0;orthogonalLoop=1;jettySize=auto;html=1;" parent="1" source="6IYVuv3BcA2IkdbU4PLg-10" edge="1">
                    <mxGeometry relative="1" as="geometry">
                        <mxPoint x="600" y="320" as="targetPoint"/>
                    </mxGeometry>
                </mxCell>
                <mxCell id="6IYVuv3BcA2IkdbU4PLg-10" value="E" style="rounded=0;whiteSpace=wrap;html=1;" parent="1" vertex="1">
                    <mxGeometry x="300" y="300" width="80" height="40" as="geometry"/>
                </mxCell>
            </root>
        </mxGraphModel>
    </diagram>
</mxfile>